<svg width="62" height="62" viewBox="0 0 62 62" fill="none" xmlns="http://www.w3.org/2000/svg">
<g id="icon / clock | time">
<path id="Vector" d="M56.8334 14.7767L44.95 4.80505L41.6175 8.75755L53.5009 18.7292L56.8334 14.7767ZM20.3567 8.75755L17.05 4.80505L5.16669 14.7509L8.49919 18.7034L20.3567 8.75755ZM32.2917 20.6667H28.4167V36.1667L40.6875 43.5292L42.625 40.3517L32.2917 34.2292V20.6667ZM31 10.3334C18.1609 10.3334 7.75002 20.7442 7.75002 33.5834C7.75002 46.4226 18.135 56.8334 31 56.8334C43.8392 56.8334 54.25 46.4226 54.25 33.5834C54.25 20.7442 43.8392 10.3334 31 10.3334ZM31 51.6667C21.0025 51.6667 12.9167 43.5809 12.9167 33.5834C12.9167 23.5859 21.0025 15.5001 31 15.5001C40.9975 15.5001 49.0834 23.5859 49.0834 33.5834C49.0834 43.5809 40.9975 51.6667 31 51.6667Z" fill="#424242"/>
</g>
</svg>
